{"title":"Saw.VII.2010.BRRIP.720P.H264-ZEKTORM","uid":6078173,"size":2409953590,"categoryP":"video","categoryS":"hd___movies","magnet":"?xt=urn:btih:ac847fd9a4e8a6fd74d6e88f875f457b63aad165&amp;dn=Saw.VII.2010.BRRIP.720P.H264-ZEKTORM&amp;tr=udp%3A%2F%2Ftracker.openbittorrent.com%3A80&amp;tr=udp%3A%2F%2Fopen.demonii.com%3A1337&amp;tr=udp%3A%2F%2Ftracker.coppersurfer.tk%3A6969&amp;tr=udp%3A%2F%2Fexodus.desync.com%3A6969","seeders":0,"leechers":1,"uploader":"blowley","files":4,"time":1293982543,"description":"Title                            : Saw 3D\nYear                             : 2010\nGenre                            : Crime | Horror | Mystery\niMDB URL                         : http://www.imdb.com/title/tt1477076/\n\nComplete name                    : Saw.VII.2010.BRRIP.720P.H264-ZEKTORM.mp4\nFormat                           : MPEG-4\nFormat profile                   : Base Media\nCodec ID                         : isom\nFile size                        : 2.24 GiB\nDuration                         : 1h 30mn\nOverall bit rate                 : 3570 Kbps\nSubtitles                        : English (Format: srt)\n\nVideo\nID                               : 1\nFormat                           : AVC\nFormat/Info                      : Advanced Video Codec\nFormat profile                   : &lt;a class=&quot;__cf_email__&quot; href=&quot;/cdn-cgi/l/email-protection&quot; data-cfemail=&quot;357d5c525d7579011b05&quot;&gt;[email&amp;#160;protected]&lt;/a&gt;&lt;script cf-hash='f9e31' type=&quot;text/javascript&quot;&gt;\n/* &lt;![CDATA[ */!function(){try{var t=&quot;currentScript&quot;in document?document.currentScript:function(){for(var t=document.getElementsByTagName(&quot;script&quot;),e=t.length;e--;)if(t[e].getAttribute(&quot;cf-hash&quot;))return t[e]}();if(t&amp;&amp;t.previousSibling){var e,r,n,i,c=t.previousSibling,a=c.getAttribute(&quot;data-cfemail&quot;);if(a){for(e=&quot;&quot;,r=parseInt(a.substr(0,2),16),n=2;a.length-n;n+=2)i=parseInt(a.substr(n,2),16)^r,e+=String.fromCharCode(i);e=document.createTextNode(e),c.parentNode.replaceChild(e,c)}}}catch(u){}}();/* ]]&gt; */&lt;/script&gt;\nFormat settings, CABAC           : Yes\nFormat settings, ReFrames        : 5 frames\nCodec ID                         : avc1\nCodec ID/Info                    : Advanced Video Coding\nDuration                         : 1h 30mn\nBit rate mode                    : Variable\nBit rate                         : 3130 Kbps\nWidth                            : 1280 pixels\nHeight                           : 720 pixels\nDisplay aspect ratio             : 16/9\nFrame rate mode                  : Constant\nFrame rate                       : 23.976 fps\nResolution                       : 24 bits\nColorimetry                      : 4:2:0\nScan type                        : Progressive\nBits/(Pixel*Frame)               : 0.142\nStream size                      : 1.97 GiB (88%)\nTitle                            : Video\nWriting library                  : x264\n\nAudio\nID                               : 2\nFormat                           : AAC\nFormat/Info                      : Advanced Audio Codec\nFormat version                   : Version 4\nFormat profile                   : LC\nFormat settings, SBR             : No\nCodec ID                         : 40\nDuration                         : 1h 30mn\nBit rate mode                    : Variable\nBit rate                         : 440 Kbps\nMaximum bit rate                 : 535 Kbps\nChannel(s)                       : 6 channels\nChannel positions                : Front: L C R, Rear: L R, LFE\nSampling rate                    : 48.0 KHz\nResolution                       : 16 bits\nStream size                      : 283 MiB (12%)\nLanguage                         : English\n\n\nScreenshots:\n &lt;a href=&quot;\nhttp://img3.imageshack.us/img3/1058/snaps1.png&quot; rel=&quot;nofollow&quot; target=&quot;_NEW&quot;&gt;\nhttp://img3.imageshack.us/img3/1058/snaps1.png&lt;/a&gt;\n &lt;a href=&quot;\nhttp://img28.imageshack.us/img28/6115/snaps2.png&quot; rel=&quot;nofollow&quot; target=&quot;_NEW&quot;&gt;\nhttp://img28.imageshack.us/img28/6115/snaps2.png&lt;/a&gt;\n &lt;a href=&quot;\nhttp://img522.imageshack.us/img522/3715/snaps3.png&quot; rel=&quot;nofollow&quot; target=&quot;_NEW&quot;&gt;\nhttp://img522.imageshack.us/img522/3715/snaps3.png&lt;/a&gt;\n &lt;a href=&quot;\nhttp://img6.imageshack.us/img6/3786/snaps4.png&quot; rel=&quot;nofollow&quot; target=&quot;_NEW&quot;&gt;\nhttp://img6.imageshack.us/img6/3786/snaps4.png&lt;/a&gt;\n\n","torrent":{"xt":"urn:btih:ac847fd9a4e8a6fd74d6e88f875f457b63aad165","amp;dn":"Saw.VII.2010.BRRIP.720P.H264-ZEKTORM","amp;tr":["udp%3A%2F%2Ftracker.openbittorrent.com%3A80","udp%3A%2F%2Fopen.demonii.com%3A1337","udp%3A%2F%2Ftracker.coppersurfer.tk%3A6969","udp%3A%2F%2Fexodus.desync.com%3A6969"],"infoHash":"ac847fd9a4e8a6fd74d6e88f875f457b63aad165","infoHashBuffer":{"type":"Buffer","data":[172,132,127,217,164,232,166,253,116,214,232,143,135,95,69,123,99,170,209,101]},"announce":[],"urlList":[]}}